Coordinates
version=1
nRows=14
nColumns=36
inDegrees=yes

Units are S.I. units (second, meters, Newtons, ...)
If the header above contains a line with 'inDegrees', this indicates whether rotational values are in degrees (yes) or radians (no).

endheader
time	pelvis_tilt	pelvis_list	pelvis_rotation	pelvis_tx	pelvis_ty	pelvis_tz	hip_flexion_r	hip_adduction_r	hip_rotation_r	knee_angle_r	knee_angle_r_beta	ankle_angle_r	subtalar_angle_r	mtp_angle_r	hip_flexion_l	hip_adduction_l	hip_rotation_l	knee_angle_l	knee_angle_l_beta	ankle_angle_l	subtalar_angle_l	mtp_angle_l	lumbar_extension	lumbar_bending	lumbar_rotation	arm_flex_r	arm_add_r	arm_rot_r	elbow_flex_r	pro_sup_r	arm_flex_l	arm_add_l	arm_rot_l	elbow_flex_l	pro_sup_l
      4.48333330	    -14.12625058	      0.12023652	     -3.08858284	      0.55469253	      0.90403680	      0.45998590	     37.70407720	     -8.88209239	     -4.21660924	     32.77756545	      0.57207644	     19.02368171	      8.70512136	     -7.49999987	     39.27994566	     -8.78062673	     -0.53729356	     32.93378290	      0.57480295	     17.47505172	      2.05298861	     -7.49999987	    -14.92755594	      3.11701179	      5.14315786	     83.27622132	     -3.74839150	     61.11221955	    118.41565241	     77.26826514	     76.98657539	      2.74990130	     63.39798798	    121.15679683	     82.18845111
      4.50000000	    -15.84399566	      0.29714586	     -3.30842043	      0.55558600	      0.89269723	      0.45984859	     41.09164268	     -9.19829053	     -4.16759969	     35.13828591	      0.61327878	     20.20488231	      9.45026028	     -7.49999987	     42.42967152	     -8.84952024	     -0.29316543	     35.01061985	      0.61105059	     18.42931184	      1.67541000	     -7.49999987	    -14.85866966	      3.02329346	      6.00133511	     84.35564534	     -3.68135082	     62.48146254	    121.15141319	     78.05555567	     77.54215773	      3.88446849	     63.45124927	    121.93064708	     82.97257627
      4.51666670	    -17.56488652	      0.50606605	     -3.53608611	      0.54964498	      0.88305084	      0.45853865	     44.65134953	     -9.53278195	     -4.04552283	     37.66543857	      0.65738592	     21.31383627	     10.06250333	     -7.49999987	     45.75987846	     -8.98463431	     -0.21783911	     37.30855109	      0.65115706	     19.37128055	      1.55796347	     -7.49999987	    -15.26779553	      2.78226173	      6.62589526	     85.46350355	     -4.22465660	     62.82719194	    122.37710186	     82.18688286	     79.33712511	      4.91880333	     63.68734467	    121.27231269	     88.47691577
      4.53333330	    -19.33349963	      0.65576117	     -3.61325892	      0.54493510	      0.87339464	      0.46159211	     48.20335794	     -9.83196519	     -4.04491119	     40.22084188	      0.70198612	     22.40465259	     10.59947245	     -7.49999987	     49.41547620	     -9.17677587	     -0.08587539	     39.88574900	      0.69613764	     20.33602203	      1.42982696	     -7.49999987	    -16.06576769	      2.81693069	      6.63248911	     87.53387666	     -4.69767724	     62.64307129	    121.88402677	     82.41602846	     81.98345428	      4.37132189	     64.24548582	    123.24104239	     88.84658984
      4.55000000	    -20.99060396	      0.81102436	     -3.62762474	      0.53746956	      0.86472792	      0.46089641	     51.97722101	    -10.23359386	     -4.08605847	     43.07705476	      0.75183644	     23.28704587	     11.01894216	     -7.49999987	     53.10900394	     -9.38768043	     -0.11957036	     42.56160989	      0.74284023	     21.22657762	      1.47979612	     -7.49999987	    -17.08586348	      2.76011052	      6.32007588	     89.71952746	     -4.39925244	     62.86158192	    122.52033096	     82.15495974	     84.92553190	      3.60411098	     63.67934624	    123.99730105	     88.72955211
      4.56666670	    -23.07677565	      0.92492861	     -3.67163426	      0.53274618	      0.85200267	      0.46430418	     56.21476769	    -10.45491495	     -4.05368471	     45.94251092	      0.80184808	     24.05730154	     10.98956414	     -7.49999987	     57.33940444	     -9.72798436	     -0.04878947	     45.29481671	      0.79054369	     22.11314976	      1.34581968	     -7.49999987	    -17.68820486	      2.68321126	      6.46619723	     92.02859749	     -4.25229997	     64.88434212	    121.93543721	     82.19765703	     87.78143813	      2.51408913	     65.11338703	    124.44436967	     88.98385805
      4.58333330	    -24.64724950	      0.94866958	     -3.73165068	      0.53197880	      0.84788099	      0.46466596	     59.52597947	    -10.68455728	     -4.25844757	     48.28401830	      0.84271510	     24.61843206	     11.04846175	     -7.49999987	     60.64112033	    -10.02517388	      0.17653993	     47.55993284	      0.83007742	     22.62924424	      1.03446109	     -7.49999987	    -18.80210033	      2.72845172	      6.56136138	     93.40494715	     -3.58924725	     66.55140920	    121.77299022	     82.22538211	     89.39687822	      1.47122736	     66.26649944	    123.97282156	     89.34173608
      4.60000000	    -26.25948379	      0.94188842	     -3.72847608	      0.51327073	      0.82907955	      0.46245634	     63.43284479	    -10.97058948	     -4.35519469	     51.22191027	      0.89399098	     25.10892351	     10.99781295	     -7.49999987	     64.66622039	    -10.37730625	      0.34983685	     50.46554342	      0.88078989	     23.08781333	      0.84438062	     -7.49999987	    -19.88608641	      2.67977879	      6.50859425	     96.49670303	     -3.60216561	     66.10735859	    120.82399058	     81.67117881	     93.31049973	      1.54756349	     65.23328555	    122.39186285	     88.69502624
      4.61666670	    -27.76894915	      1.05496728	     -3.69933718	      0.51226400	      0.80932406	      0.46364300	     67.34383237	    -11.35419109	     -4.29016296	     54.44089080	      0.95017279	     25.85400240	     10.86586764	     -7.49999987	     68.62513538	    -10.60567097	      0.62525348	     53.53598641	      0.93437923	     23.73557200	      0.46398195	     -7.49999987	    -20.35129210	      2.42102666	      7.11994523	     98.79318102	     -3.22737287	     67.11852419	    121.59217644	     81.74879931	     95.25105062	      1.98422511	     65.17270332	    121.80014777	     88.95397575
      4.63333330	    -29.10271396	      1.01393302	     -3.56739636	      0.52570094	      0.80486500	      0.46772865	     70.10345407	    -11.64281773	     -4.50896880	     56.70075125	      0.98961480	     26.67691270	     10.71856719	     -7.49999987	     71.58302345	    -10.73295216	      1.12135643	     55.74921210	      0.97300731	     24.23137440	     -0.23578761	     -7.49999987	    -20.13529947	      2.34252211	      8.07756207	     97.90446873	     -4.41054013	     67.17372243	    120.42437675	     81.30650381	     93.57178837	      2.30197076	     66.53932147	    121.26863719	     89.13939986
      4.65000000	    -30.62452529	      1.04732201	     -3.39932802	      0.49974670	      0.79030238	      0.46428703	     73.57558851	    -11.98364503	     -4.47517085	     59.28147692	      1.03465696	     26.87586949	     10.25996704	     -7.49999987	     75.23901831	    -11.00743187	      1.16450766	     58.27423586	      1.01707728	     24.48930724	     -0.19743952	     -7.49999987	    -20.73361543	      2.03763374	      8.85996527	     99.41611267	     -6.08930394	     67.67460637	    120.67694022	     80.83428800	     94.97149883	      3.31814122	     66.41221198	    119.47189376	     89.43359684
      4.66666670	    -31.58720046	      0.84779424	     -3.27983298	      0.52095094	      0.77877626	      0.46976932	     75.63543558	    -12.18610416	     -4.80250069	     61.24926567	      1.06900135	     27.51777350	      9.97605265	     -7.49999987	     77.62580257	    -11.26197755	      1.62028534	     60.30652067	      1.05254735	     25.12898523	     -0.42719868	     -7.49999987	    -20.79315061	      1.93969317	      9.99320058	     98.39046448	     -6.02718943	     67.12553497	    122.07136002	     80.34460819	     93.33761559	      3.86936926	     66.70503933	    119.25468646	     90.29389508
      4.68333330	    -32.48049330	      0.73678235	     -3.16329576	      0.51345830	      0.76555360	      0.46785514	     77.86725728	    -12.42718692	     -4.84840894	     63.46897429	      1.10774257	     28.05696764	      9.56640727	     -7.49999987	     80.06119220	    -11.64614042	      1.70805720	     62.56455500	      1.09195748	     25.84149264	     -0.03546688	     -7.49999987	    -20.99354166	      1.69427056	      9.90924419	     98.26876690	     -7.16107872	     67.36388649	    123.39683930	     79.99337952	     94.44153253	      4.84042554	     67.04470312	    118.49286840	     91.08102813
      4.70000000	    -33.39230049	      0.66534591	     -3.04615625	      0.50572432	      0.75283634	      0.46549116	     80.43673758	    -12.79454294	     -4.87033439	     66.02205952	      1.15230232	     28.62831023	      9.27670044	     -7.49999987	     82.82013089	    -12.00879187	      1.76795302	     65.15070855	      1.13709437	     26.55592865	      0.35085413	     -7.49999987	    -21.92633981	      1.43716005	      9.42397379	     99.20554478	     -9.67461482	     64.28010073	    121.34337347	     79.12863601	     98.22109200	      5.58567900	     67.77981919	    116.38059356	     91.38994022
